<svg width="150" height="150" viewBox="0 0 150 150" fill="none" xmlns="http://www.w3.org/2000/svg">
<path d="M87.5 12.5H37.5C30.625 12.5 25 18.125 25 25V125C25 131.875 30.625 137.5 37.5 137.5H112.5C119.375 137.5 125 131.875 125 125V50L87.5 12.5ZM75 62.5C81.875 62.5 87.5 68.125 87.5 75C87.5 81.875 81.875 87.5 75 87.5C68.125 87.5 62.5 81.875 62.5 75C62.5 68.125 68.125 62.5 75 62.5ZM100 112.5H50V108.938C50 103.875 53 99.375 57.625 97.375C63.1053 94.9832 69.0205 93.7486 75 93.7486C80.9795 93.7486 86.8947 94.9832 92.375 97.375C94.6393 98.3428 96.5692 99.9548 97.9249 102.011C99.2805 104.066 100.002 106.475 100 108.938V112.5Z" fill="#2D3540"/>
</svg>
