<svg width="150" height="150" viewBox="0 0 150 150" fill="none" xmlns="http://www.w3.org/2000/svg">
<path d="M75 71.875C70.856 71.875 66.8817 70.2288 63.9515 67.2985C61.0212 64.3683 59.375 60.394 59.375 56.25C59.375 52.106 61.0212 48.1317 63.9515 45.2015C66.8817 42.2712 70.856 40.625 75 40.625C79.144 40.625 83.1183 42.2712 86.0485 45.2015C88.9788 48.1317 90.625 52.106 90.625 56.25C90.625 58.3019 90.2208 60.3337 89.4356 62.2294C88.6504 64.1251 87.4995 65.8476 86.0485 67.2985C84.5976 68.7495 82.8751 69.9004 80.9794 70.6856C79.0837 71.4708 77.0519 71.875 75 71.875ZM75 12.5C63.3968 12.5 52.2688 17.1094 44.0641 25.3141C35.8594 33.5188 31.25 44.6468 31.25 56.25C31.25 89.0625 75 137.5 75 137.5C75 137.5 118.75 89.0625 118.75 56.25C118.75 44.6468 114.141 33.5188 105.936 25.3141C97.7312 17.1094 86.6032 12.5 75 12.5Z" fill="#2D3540"/>
</svg>
