<svg width="150" height="150" viewBox="0 0 150 150" fill="none" xmlns="http://www.w3.org/2000/svg">
<path fill-rule="evenodd" clip-rule="evenodd" d="M137.5 82.8125C138.743 82.8125 139.935 83.3064 140.815 84.1854C141.694 85.0645 142.188 86.2568 142.188 87.5V87.85C142.188 99.3375 142.188 108.438 141.231 115.556C140.244 122.881 138.169 128.812 133.494 133.494C128.812 138.169 122.881 140.244 115.556 141.231C108.431 142.188 99.3375 142.188 87.85 142.188H87.5C86.2568 142.188 85.0645 141.694 84.1854 140.815C83.3064 139.935 82.8125 138.743 82.8125 137.5C82.8125 136.257 83.3064 135.065 84.1854 134.185C85.0645 133.306 86.2568 132.812 87.5 132.812C99.4187 132.812 107.888 132.8 114.313 131.938C120.594 131.094 124.219 129.506 126.863 126.863C129.506 124.219 131.094 120.594 131.938 114.306C132.8 107.887 132.812 99.4187 132.812 87.5C132.812 86.2568 133.306 85.0645 134.185 84.1854C135.065 83.3064 136.257 82.8125 137.5 82.8125ZM12.5 82.8125C13.7432 82.8125 14.9355 83.3064 15.8146 84.1854C16.6936 85.0645 17.1875 86.2568 17.1875 87.5C17.1875 99.4187 17.2 107.888 18.0625 114.313C18.9063 120.594 20.4937 124.219 23.1375 126.863C25.7812 129.506 29.4062 131.094 35.6938 131.938C42.1188 132.8 50.5812 132.812 62.5 132.812C63.7432 132.812 64.9355 133.306 65.8146 134.185C66.6936 135.065 67.1875 136.257 67.1875 137.5C67.1875 138.743 66.6936 139.935 65.8146 140.815C64.9355 141.694 63.7432 142.188 62.5 142.188H62.15C50.6625 142.188 41.5625 142.188 34.4438 141.231C27.1188 140.244 21.1875 138.169 16.5063 133.494C11.8313 128.812 9.75625 122.881 8.76875 115.556C7.8125 108.431 7.8125 99.3375 7.8125 87.85V87.5C7.8125 86.2568 8.30636 85.0645 9.18544 84.1854C10.0645 83.3064 11.2568 82.8125 12.5 82.8125ZM62.15 7.8125H62.5C63.7432 7.8125 64.9355 8.30636 65.8146 9.18544C66.6936 10.0645 67.1875 11.2568 67.1875 12.5C67.1875 13.7432 66.6936 14.9355 65.8146 15.8146C64.9355 16.6936 63.7432 17.1875 62.5 17.1875C50.5812 17.1875 42.1188 17.2 35.6875 18.0625C29.4062 18.9063 25.7812 20.4937 23.1375 23.1375C20.4937 25.7812 18.9063 29.4062 18.0625 35.6938C17.2 42.1188 17.1875 50.5812 17.1875 62.5C17.1875 63.7432 16.6936 64.9355 15.8146 65.8146C14.9355 66.6936 13.7432 67.1875 12.5 67.1875C11.2568 67.1875 10.0645 66.6936 9.18544 65.8146C8.30636 64.9355 7.8125 63.7432 7.8125 62.5V62.15C7.8125 50.6625 7.8125 41.5625 8.76875 34.4438C9.75625 27.1188 11.8313 21.1875 16.5063 16.5063C21.1875 11.8313 27.1188 9.75625 34.4438 8.76875C41.5688 7.8125 50.6625 7.8125 62.15 7.8125ZM114.313 18.0625C107.888 17.2 99.4187 17.1875 87.5 17.1875C86.2568 17.1875 85.0645 16.6936 84.1854 15.8146C83.3064 14.9355 82.8125 13.7432 82.8125 12.5C82.8125 11.2568 83.3064 10.0645 84.1854 9.18544C85.0645 8.30636 86.2568 7.8125 87.5 7.8125H87.85C99.3375 7.8125 108.438 7.8125 115.556 8.76875C122.881 9.75625 128.812 11.8313 133.494 16.5063C138.169 21.1875 140.244 27.1188 141.231 34.4438C142.188 41.5688 142.188 50.6625 142.188 62.15V62.5C142.188 63.7432 141.694 64.9355 140.815 65.8146C139.935 66.6936 138.743 67.1875 137.5 67.1875C136.257 67.1875 135.065 66.6936 134.185 65.8146C133.306 64.9355 132.812 63.7432 132.812 62.5C132.812 50.5812 132.8 42.1188 131.938 35.6875C131.094 29.4062 129.506 25.7812 126.863 23.1375C124.219 20.4937 120.594 18.9063 114.306 18.0625H114.313Z" fill="#2D3540"/>
<path fill-rule="evenodd" clip-rule="evenodd" d="M37.6563 81.9313C42.3438 79.6625 52.7688 71.875 75 71.875C97.2313 71.875 107.65 79.6625 112.344 81.9313L112.419 81.9687C112.995 82.2306 113.546 82.5466 114.063 82.9125C114.888 83.5187 115.494 84.225 115.988 85.0187C117.2 86.9562 117.188 88.7938 117.181 89.875V90.95C117.181 96.5688 117.181 101.25 116.681 104.963C116.156 108.888 114.994 112.431 112.15 115.275C109.3 118.125 105.763 119.288 101.838 119.812C98.1188 120.312 93.4375 120.312 87.8188 120.312H62.175C56.5625 120.312 51.8813 120.312 48.1625 119.812C44.2375 119.288 40.6938 118.125 37.85 115.275C35 112.431 33.8438 108.888 33.3125 104.963C32.8125 101.25 32.8125 96.5625 32.8125 90.95V89.875C32.8125 88.7875 32.7938 86.95 34.0125 85.0187C34.5063 84.2312 35.1125 83.5187 35.9375 82.9125C36.4776 82.531 37.0532 82.2024 37.6563 81.9313Z" fill="#2D3540"/>
<path d="M101.838 30.1875C98.125 29.6875 93.4375 29.6875 87.825 29.6875H62.175C56.5625 29.6875 51.875 29.6875 48.1625 30.1875C44.2375 30.7125 40.6938 31.875 37.85 34.7187C35 37.5687 33.8375 41.1125 33.3125 45.0312C32.8125 48.75 32.8125 53.4375 32.8125 59.05V60.8375C31.6 61.6125 30.5688 62.3375 29.7125 62.9938C28.6261 63.8199 27.5889 64.7089 26.6063 65.6562L26.5438 65.7188L26.5188 65.7438L26.5125 65.7562L26.5 65.7625C25.5632 66.7929 25.0307 68.1273 25.0008 69.5196C24.971 70.9118 25.4457 72.2679 26.3375 73.3375C26.7457 73.8385 27.2567 74.246 27.836 74.5324C28.4153 74.8189 29.0494 74.9775 29.6953 74.9977C30.3412 75.0178 30.9839 74.899 31.58 74.6492C32.176 74.3995 32.7114 74.0246 33.15 73.55L33.2 73.4937L33.5438 73.1812C34.0716 72.7074 34.6201 72.2569 35.1875 71.8312C37.4795 70.1216 39.9328 68.6396 42.5125 67.4062C49.2438 64.125 59.875 60.7188 75 60.7188C90.125 60.7188 100.75 64.125 107.488 67.4062C110.863 69.0438 113.281 70.6688 114.813 71.8312C115.503 72.3512 116.166 72.9061 116.8 73.4937L116.85 73.55C117.289 74.0246 117.824 74.3995 118.42 74.6492C119.016 74.899 119.659 75.0178 120.305 74.9977C120.951 74.9775 121.585 74.8189 122.164 74.5324C122.743 74.246 123.254 73.8385 123.663 73.3375C124.554 72.2679 125.029 70.9118 124.999 69.5196C124.969 68.1273 124.437 66.7929 123.5 65.7625L123.206 65.4688C122.279 64.5912 121.305 63.765 120.288 62.9938C119.283 62.234 118.249 61.5146 117.188 60.8375V59.05C117.188 53.4375 117.188 48.75 116.688 45.0375C116.163 41.1125 115 37.5688 112.15 34.725C109.306 31.875 105.763 30.7125 101.838 30.1875Z" fill="#2D3540"/>
</svg>
